<?xml version="1.0" encoding="utf-8"?><svg xmlns="http://www.w3.org/2000/svg" xmlns:xlink="http://www.w3.org/1999/xlink" width="1366" height="625" preserveAspectRatio="xMidYMid" viewBox="0 0 1366 625" style="z-index:1;margin-right:-2px;display:block;background-repeat-y:initial;background-repeat-x:initial;background-color:rgb(255, 255, 255);animation-play-state:paused" ><g transform="translate(683,312.5) scale(1,1) translate(-683,-312.5)" style="transform:matrix(1, 0, 0, 1, 0, 0);animation-play-state:paused" ><linearGradient id="lg-0.9082703509579049" x1="0" x2="1" y1="0" y2="0" style="animation-play-state:paused" ><stop stop-color="#d3ddf9" offset="0" style="animation-play-state:paused" ></stop>

  
<stop stop-color="#f2f8fd" offset="1" style="animation-play-state:paused" ></stop></linearGradient>
<path d="M 1138.2 313 C 1138.2 442.6 920.2 625.8 797.6 665.4 C 675 705 425.2 659 349.2 554.6 C 273.2 450.2 242.2 151.8 318.2 47.4 C 394.2 -57 660 -34.4 782.6 5.2 C 905.2 44.8 1138.2 183.4 1138.2 313" fill="url(#lg-0.9082703509579049)" opacity="0.4" style="opacity:0.4;animation-play-state:paused" ></path>
<path d="M 1129 313 C 1129 434 887.8 552.2 772.8 589.2 C 657.8 626.2 411.8 659 340.8 561 C 269.8 463 265.6 158.8 336.6 61 C 407.6 -36.8 663 -16.2 778 20.8 C 893 57.8 1129 192 1129 313" fill="url(#lg-0.9082703509579049)" opacity="0.4" style="opacity:0.4;animation-play-state:paused" ></path>
<path d="M 1177.8 313 C 1177.8 440.2 922.4 639.8 802 679 C 681.6 718.2 421.2 659 347 556.6 C 272.8 454.2 262.8 164.4 337.2 61.2 C 411.6 -42 654.4 -8.8 774.8 30.4 C 895.2 69.6 1177.8 185.8 1177.8 313" fill="url(#lg-0.9082703509579049)" opacity="0.4" style="opacity:0.4;animation-play-state:paused" ></path>
<path d="M 1085.2 313 C 1085.2 433.2 879 527.4 764.8 564.6 C 650.6 601.8 408.4 660.2 337.8 563.2 C 267.2 466.2 263.6 155.6 334.2 58.6 C 404.8 -38.4 671.2 -39.4 785.4 -2 C 899.6 35.4 1085.2 192.8 1085.2 313" fill="url(#lg-0.9082703509579049)" opacity="0.4" style="opacity:0.4;animation-play-state:paused" ></path>
<path d="M 1155.4 313 C 1155.4 451.2 933.2 634.2 801.8 677 C 670.4 719.8 419 675.4 337.4 563.8 C 255.8 452.2 235.2 158.2 316.8 46.6 C 398.4 -65 652.4 -40.2 783.8 2.6 C 915.2 45.4 1155.4 174.8 1155.4 313" fill="url(#lg-0.9082703509579049)" opacity="0.4" style="opacity:0.4;animation-play-state:paused" ></path></g></svg>