<?xml version="1.0" encoding="utf-8"?><svg xmlns="http://www.w3.org/2000/svg" xmlns:xlink="http://www.w3.org/1999/xlink" width="849" height="761" preserveAspectRatio="xMidYMid" viewBox="0 0 849 761" style="z-index:1;margin-right:-2px;display:block;background-repeat-y:initial;background-repeat-x:initial;background-color:rgb(255, 255, 255);animation-play-state:paused" ><g transform="translate(424.5,380.5) scale(1,1) translate(-424.5,-380.5)" style="transform:matrix(1, 0, 0, 1, 0, 0);animation-play-state:paused" ><linearGradient id="lg-0.5003713416418232" x1="0" x2="1" y1="0" y2="0" style="animation-play-state:paused" ><stop stop-color="#eff2f9" offset="0" style="animation-play-state:paused" ></stop>

  
<stop stop-color="#f2f8fd" offset="1" style="animation-play-state:paused" ></stop></linearGradient>
<path d="M 914 381 C 914 466.75 797.5 632 736.75 692.75 C 676 753.5 510.75 629.5 425 629.5 C 339.25 629.5 168.5 758 107.75 697.25 C 47 636.5 -45.25 466.75 -45.25 381 C -45.25 295.25 38 115.5 98.75 54.75 C 159.5 -6 338.25 129.75 424 129.75 C 509.75 129.75 647.5 36 708.25 96.75 C 769 157.5 914 295.25 914 381" fill="url(#lg-0.5003713416418232)" opacity="0.55" style="opacity:0.55;animation-play-state:paused" ></path>
<path d="M 891.75 381 C 891.75 468.5 817.75 650.75 756.25 712.25 C 694.75 773.75 512.5 655.25 425 655.25 C 337.5 655.25 171 757 109.5 695.5 C 48 634 -39.25 468.5 -39.25 381 C -39.25 293.5 15.75 94.75 77.25 33.25 C 138.75 -28.25 336.5 42.25 424 42.25 C 511.5 42.25 656.25 25.75 717.75 87.25 C 779.25 148.75 891.75 293.5 891.75 381" fill="url(#lg-0.5003713416418232)" opacity="0.55" style="opacity:0.55;animation-play-state:paused" ></path>
<path d="M 911.75 381 C 911.75 462.25 759.75 600.75 702.25 658.25 C 644.75 715.75 506.25 655.5 425 655.5 C 343.75 655.5 192 728 134.5 670.5 C 77 613 -37 462.25 -37 381 C -37 299.75 86 157 143.5 99.5 C 201 42 342.75 114 424 114 C 505.25 114 642 48 699.5 105.5 C 757 163 911.75 299.75 911.75 381" fill="url(#lg-0.5003713416418232)" opacity="0.55" style="opacity:0.55;animation-play-state:paused" ></path>
<path d="M 876.75 381 C 876.75 469.25 793.25 624.75 731 687 C 668.75 749.25 513.25 695.5 425 695.5 C 336.75 695.5 203.25 726.25 141 664 C 78.75 601.75 -96.75 469.25 -96.75 381 C -96.75 292.75 71.75 152.25 134 90 C 196.25 27.75 335.75 100.5 424 100.5 C 512.25 100.5 685.5 -5 747.75 57.25 C 810 119.5 876.75 292.75 876.75 381" fill="url(#lg-0.5003713416418232)" opacity="0.55" style="opacity:0.55;animation-play-state:paused" ></path>
<path d="M 861 381 C 861 463.75 779.75 619.25 721.5 677.5 C 663.25 735.75 507.75 652.25 425 652.25 C 342.25 652.25 168.25 753.25 110 695 C 51.75 636.75 -68.75 463.75 -68.75 381 C -68.75 298.25 87 159.5 145.25 101.25 C 203.5 43 341.25 98.25 424 98.25 C 506.75 98.25 697.25 -8.75 755.5 49.5 C 813.75 107.75 861 298.25 861 381" fill="url(#lg-0.5003713416418232)" opacity="0.55" style="opacity:0.55;animation-play-state:paused" ></path>
<path d="M 913.5 381 C 913.5 471.75 789.25 617.25 725.25 681.25 C 661.25 745.25 515.75 654 425 654 C 334.25 654 184.75 748.25 120.75 684.25 C 56.75 620.25 -131.75 471.75 -131.75 381 C -131.75 290.25 79.75 163.75 143.75 99.75 C 207.75 35.75 333.25 44.75 424 44.75 C 514.75 44.75 650.75 26.25 714.75 90.25 C 778.75 154.25 913.5 290.25 913.5 381" fill="url(#lg-0.5003713416418232)" opacity="0.55" style="opacity:0.55;animation-play-state:paused" ></path>
<path d="M 885 381 C 885 466.25 785 620 724.5 680.5 C 664 741 510.25 668 425 668 C 339.75 668 181.75 744.25 121.25 683.75 C 60.75 623.25 -18.75 466.25 -18.75 381 C -18.75 295.75 63.5 140.5 124 80 C 184.5 19.5 338.75 68.75 424 68.75 C 509.25 68.75 674.5 9.5 735 70 C 795.5 130.5 885 295.75 885 381" fill="url(#lg-0.5003713416418232)" opacity="0.55" style="opacity:0.55;animation-play-state:paused" ></path>
<path d="M 898.25 381 C 898.25 461.5 740.25 582.25 683.25 639.25 C 626.25 696.25 505.5 691.5 425 691.5 C 344.5 691.5 173.25 745.75 116.25 688.75 C 59.25 631.75 -76.25 461.5 -76.25 381 C -76.25 300.5 70.25 140.25 127.25 83.25 C 184.25 26.25 343.5 105.75 424 105.75 C 504.5 105.75 636 55 693 112 C 750 169 898.25 300.5 898.25 381" fill="url(#lg-0.5003713416418232)" opacity="0.55" style="opacity:0.55;animation-play-state:paused" ></path></g></svg>