<?xml version="1.0" encoding="utf-8"?><svg xmlns="http://www.w3.org/2000/svg" xmlns:xlink="http://www.w3.org/1999/xlink" width="1119" height="761" preserveAspectRatio="xMidYMid" viewBox="0 0 1119 761" style="z-index:1;margin-right:-2px;display:block;background-repeat-y:initial;background-repeat-x:initial;background-color:rgb(255, 255, 255);animation-play-state:paused" ><g transform="translate(559.5,380.5) scale(1,1) translate(-559.5,-380.5)" style="transform:matrix(1, 0, 0, 1, 0, 0);animation-play-state:paused" ><linearGradient id="lg-0.6221104363170717" x1="0" x2="1" y1="0" y2="0" style="animation-play-state:paused" ><stop stop-color="#eff2f9" offset="0" style="animation-play-state:paused" ></stop>

  
<stop stop-color="#f2f8fd" offset="1" style="animation-play-state:paused" ></stop></linearGradient>
<path d="M 1048.5 381 C 1048.5 467.75 939.5 637.5 878 699 C 816.5 760.5 646.75 675.5 560 675.5 C 473.25 675.5 317.5 745.5 256 684 C 194.5 622.5 110.75 467.75 110.75 381 C 110.75 294.25 210.25 154.25 271.75 92.75 C 333.25 31.25 473 78.75 559.75 78.75 C 646.5 78.75 808.75 8.25 870.25 69.75 C 931.75 131.25 1048.5 294.25 1048.5 381" fill="url(#lg-0.6221104363170717)" opacity="0.55" style="opacity:0.55;animation-play-state:paused" ></path>
<path d="M 1013 381 C 1013 462 929.25 635.75 872 693 C 814.75 750.25 641 631.25 560 631.25 C 479 631.25 309.25 745.25 252 688 C 194.75 630.75 118.25 462 118.25 381 C 118.25 300 182.75 118.25 240 61 C 297.25 3.75 479 106.25 560 106.25 C 641 106.25 769 56.5 826.25 113.75 C 883.5 171 1013 300 1013 381" fill="url(#lg-0.6221104363170717)" opacity="0.55" style="opacity:0.55;animation-play-state:paused" ></path>
<path d="M 1054.25 381 C 1054.25 463.5 896.5 600.5 838 659 C 779.5 717.5 642.5 655.5 560 655.5 C 477.5 655.5 320.75 736.25 262.25 677.75 C 203.75 619.25 144 463.5 144 381 C 144 298.5 231.25 169.25 289.75 110.75 C 348.25 52.25 477.5 121.75 560 121.75 C 642.5 121.75 768.75 54.25 827.25 112.75 C 885.75 171.25 1054.25 298.5 1054.25 381" fill="url(#lg-0.6221104363170717)" opacity="0.55" style="opacity:0.55;animation-play-state:paused" ></path>
<path d="M 1015.75 381 C 1015.75 470 963 658 900 721 C 837 784 649 684.25 560 684.25 C 471 684.25 326.25 739.75 263.25 676.75 C 200.25 613.75 0.5 470 0.5 381 C 0.5 292 206.5 153.5 269.5 90.5 C 332.5 27.5 470.25 25.25 559.25 25.25 C 648.25 25.25 788.5 25.5 851.5 88.5 C 914.5 151.5 1015.75 292 1015.75 381" fill="url(#lg-0.6221104363170717)" opacity="0.55" style="opacity:0.55;animation-play-state:paused" ></path>
<path d="M 1018.25 381 C 1018.25 469 944.25 641.25 882.25 703.25 C 820.25 765.25 648 698.5 560 698.5 C 472 698.5 283 781 221 719 C 159 657 98.75 469 98.75 381 C 98.75 293 181 126 243 64 C 305 2 472 77.5 560 77.5 C 648 77.5 838.5 -22.5 900.5 39.5 C 962.5 101.5 1018.25 293 1018.25 381" fill="url(#lg-0.6221104363170717)" opacity="0.55" style="opacity:0.55;animation-play-state:paused" ></path>
<path d="M 1087.75 381 C 1087.75 470.25 934 628 870.5 691.5 C 807 755 649.25 669.75 560 669.75 C 470.75 669.75 293 774 229.5 710.5 C 166 647 37.75 470.25 37.75 381 C 37.75 291.75 153.25 101.25 216.75 37.75 C 280.25 -25.75 470 46 559.25 46 C 648.5 46 798.25 14.75 861.75 78.25 C 925.25 141.75 1087.75 291.75 1087.75 381" fill="url(#lg-0.6221104363170717)" opacity="0.55" style="opacity:0.55;animation-play-state:paused" ></path>
<path d="M 984.5 381 C 984.5 463.5 890 594.5 831.75 652.75 C 773.5 711 642.5 639.5 560 639.5 C 477.5 639.5 321.5 735 263.25 676.75 C 205 618.5 93 463.5 93 381 C 93 298.5 212.25 149.75 270.5 91.5 C 328.75 33.25 477.25 113.75 559.75 113.75 C 642.25 113.75 771.25 52.25 829.5 110.5 C 887.75 168.75 984.5 298.5 984.5 381" fill="url(#lg-0.6221104363170717)" opacity="0.55" style="opacity:0.55;animation-play-state:paused" ></path>
<path d="M 1024.5 381 C 1024.5 462.5 886.75 592.75 829.25 650.25 C 771.75 707.75 641.5 657.75 560 657.75 C 478.5 657.75 312.5 742.5 255 685 C 197.5 627.5 51.5 462.5 51.5 381 C 51.5 299.5 227.75 163.75 285.25 106.25 C 342.75 48.75 478.25 91 559.75 91 C 641.25 91 760.25 64.75 817.75 122.25 C 875.25 179.75 1024.5 299.5 1024.5 381" fill="url(#lg-0.6221104363170717)" opacity="0.55" style="opacity:0.55;animation-play-state:paused" ></path></g></svg>