<?xml version="1.0" standalone="no"?>
<svg xmlns:xlink="http://www.w3.org/1999/xlink" id="wave" style="transform:rotate(180deg); transition: 0.3s" viewBox="0 0 1440 490" version="1.1" xmlns="http://www.w3.org/2000/svg"><defs><linearGradient id="sw-gradient-0" x1="0" x2="0" y1="1" y2="0"><stop stop-color="rgba(13, 35, 80, 1)" offset="0%"/><stop stop-color="rgba(13, 35, 80, 1)" offset="100%"/></linearGradient></defs><path style="transform:translate(0, 0px); opacity:1" fill="url(#sw-gradient-0)" d="M0,147L240,179.7C480,212,960,278,1440,285.8C1920,294,2400,245,2880,220.5C3360,196,3840,196,4320,220.5C4800,245,5280,294,5760,261.3C6240,229,6720,114,7200,98C7680,82,8160,163,8640,171.5C9120,180,9600,114,10080,106.2C10560,98,11040,147,11520,179.7C12000,212,12480,229,12960,204.2C13440,180,13920,114,14400,114.3C14880,114,15360,180,15840,196C16320,212,16800,180,17280,155.2C17760,131,18240,114,18720,114.3C19200,114,19680,131,20160,163.3C20640,196,21120,245,21600,220.5C22080,196,22560,98,23040,122.5C23520,147,24000,294,24480,334.8C24960,376,25440,310,25920,277.7C26400,245,26880,245,27360,228.7C27840,212,28320,180,28800,147C29280,114,29760,82,30240,114.3C30720,147,31200,245,31680,302.2C32160,359,32640,376,33120,359.3C33600,343,34080,294,34320,269.5L34560,245L34560,490L34320,490C34080,490,33600,490,33120,490C32640,490,32160,490,31680,490C31200,490,30720,490,30240,490C29760,490,29280,490,28800,490C28320,490,27840,490,27360,490C26880,490,26400,490,25920,490C25440,490,24960,490,24480,490C24000,490,23520,490,23040,490C22560,490,22080,490,21600,490C21120,490,20640,490,20160,490C19680,490,19200,490,18720,490C18240,490,17760,490,17280,490C16800,490,16320,490,15840,490C15360,490,14880,490,14400,490C13920,490,13440,490,12960,490C12480,490,12000,490,11520,490C11040,490,10560,490,10080,490C9600,490,9120,490,8640,490C8160,490,7680,490,7200,490C6720,490,6240,490,5760,490C5280,490,4800,490,4320,490C3840,490,3360,490,2880,490C2400,490,1920,490,1440,490C960,490,480,490,240,490L0,490Z"/></svg>