<?xml version="1.0" standalone="no"?>
<svg xmlns:xlink="http://www.w3.org/1999/xlink" id="wave" style="transform:rotate(0deg); transition: 0.3s" viewBox="0 0 1440 490" version="1.1" xmlns="http://www.w3.org/2000/svg"><defs><linearGradient id="sw-gradient-0" x1="0" x2="0" y1="1" y2="0"><stop stop-color="rgba(246.32, 246.32, 246.32, 1)" offset="0%"/><stop stop-color="rgba(235.796, 234.035, 255, 1)" offset="100%"/></linearGradient></defs><path style="transform:translate(0, 0px); opacity:1" fill="url(#sw-gradient-0)" d="M0,294L1440,245L2880,98L4320,294L5760,49L7200,0L8640,441L10080,0L11520,441L12960,0L14400,147L15840,441L17280,0L18720,0L20160,196L21600,245L23040,0L24480,441L25920,294L27360,392L28800,49L30240,0L31680,392L33120,392L34560,49L34560,490L33120,490L31680,490L30240,490L28800,490L27360,490L25920,490L24480,490L23040,490L21600,490L20160,490L18720,490L17280,490L15840,490L14400,490L12960,490L11520,490L10080,490L8640,490L7200,490L5760,490L4320,490L2880,490L1440,490L0,490Z"/><defs><linearGradient id="sw-gradient-1" x1="0" x2="0" y1="1" y2="0"><stop stop-color="rgba(244.113, 244.305, 255, 1)" offset="0%"/><stop stop-color="rgba(236.389, 231.156, 255, 1)" offset="100%"/></linearGradient></defs><path style="transform:translate(0, 50px); opacity:0.9" fill="url(#sw-gradient-1)" d="M0,196L1440,441L2880,294L4320,196L5760,196L7200,49L8640,147L10080,392L11520,245L12960,245L14400,294L15840,245L17280,0L18720,49L20160,196L21600,294L23040,441L24480,0L25920,0L27360,245L28800,98L30240,294L31680,49L33120,147L34560,49L34560,490L33120,490L31680,490L30240,490L28800,490L27360,490L25920,490L24480,490L23040,490L21600,490L20160,490L18720,490L17280,490L15840,490L14400,490L12960,490L11520,490L10080,490L8640,490L7200,490L5760,490L4320,490L2880,490L1440,490L0,490Z"/><defs><linearGradient id="sw-gradient-2" x1="0" x2="0" y1="1" y2="0"><stop stop-color="rgba(231.156, 231.576, 255, 1)" offset="0%"/><stop stop-color="rgba(233.872, 229.479, 253.15, 1)" offset="100%"/></linearGradient></defs><path style="transform:translate(0, 100px); opacity:0.8" fill="url(#sw-gradient-2)" d="M0,343L1440,49L2880,245L4320,343L5760,49L7200,98L8640,294L10080,98L11520,98L12960,147L14400,343L15840,0L17280,0L18720,147L20160,98L21600,147L23040,147L24480,392L25920,343L27360,0L28800,245L30240,343L31680,343L33120,441L34560,294L34560,490L33120,490L31680,490L30240,490L28800,490L27360,490L25920,490L24480,490L23040,490L21600,490L20160,490L18720,490L17280,490L15840,490L14400,490L12960,490L11520,490L10080,490L8640,490L7200,490L5760,490L4320,490L2880,490L1440,490L0,490Z"/><defs><linearGradient id="sw-gradient-3" x1="0" x2="0" y1="1" y2="0"><stop stop-color="rgba(241.457, 241.233, 255, 1)" offset="0%"/><stop stop-color="rgba(217.827, 216.084, 250.873, 1)" offset="100%"/></linearGradient></defs><path style="transform:translate(0, 150px); opacity:0.7" fill="url(#sw-gradient-3)" d="M0,245L1440,49L2880,98L4320,441L5760,294L7200,98L8640,98L10080,245L11520,343L12960,343L14400,441L15840,0L17280,392L18720,49L20160,98L21600,196L23040,0L24480,98L25920,392L27360,49L28800,49L30240,294L31680,441L33120,147L34560,147L34560,490L33120,490L31680,490L30240,490L28800,490L27360,490L25920,490L24480,490L23040,490L21600,490L20160,490L18720,490L17280,490L15840,490L14400,490L12960,490L11520,490L10080,490L8640,490L7200,490L5760,490L4320,490L2880,490L1440,490L0,490Z"/></svg>